<mxfile host="65bd71144e">
    <diagram id="N7cEZAGIR2dTNDEE7Iiy" name="Page-1">
        <mxGraphModel dx="2287" dy="997" grid="1" gridSize="10" guides="1" tooltips="1" connect="1" arrows="1" fold="1" page="1" pageScale="1" pageWidth="850" pageHeight="1100" math="0" shadow="0">
            <root>
                <mxCell id="0"/>
                <mxCell id="1" parent="0"/>
                <mxCell id="2" value="LLD Driver&lt;br&gt;(BB, RED)" style="rounded=1;whiteSpace=wrap;html=1;fillColor=#6a00ff;fontColor=#ffffff;strokeColor=#3700CC;fontSize=16;" vertex="1" parent="1">
                    <mxGeometry x="230" y="720" width="140" height="60" as="geometry"/>
                </mxCell>
                <mxCell id="6" value="" style="edgeStyle=none;html=1;fontSize=16;" edge="1" parent="1" source="4" target="2">
                    <mxGeometry relative="1" as="geometry">
                        <mxPoint x="300" y="720" as="targetPoint"/>
                    </mxGeometry>
                </mxCell>
                <mxCell id="4" value="Elbow Driver" style="rounded=1;whiteSpace=wrap;html=1;fontSize=16;verticalAlign=top;" vertex="1" parent="1">
                    <mxGeometry x="240" y="640" width="120" height="40" as="geometry"/>
                </mxCell>
                <mxCell id="7" value="Arm Driver" style="rounded=1;whiteSpace=wrap;html=1;fontSize=16;verticalAlign=top;" vertex="1" parent="1">
                    <mxGeometry x="240" y="360" width="120" height="40" as="geometry"/>
                </mxCell>
                <mxCell id="11" value="- Управляет задание движения двигателя (вверх/вниз)&lt;br&gt;- Переводит внешние нормированные единицы в скважность с учетом пределов" style="rounded=0;whiteSpace=wrap;html=1;fontSize=16;fillColor=#a20025;fontColor=#ffffff;strokeColor=#6F0000;align=left;" vertex="1" parent="1">
                    <mxGeometry x="-70" y="585" width="270" height="150" as="geometry"/>
                </mxCell>
                <mxCell id="12" value="" style="endArrow=none;dashed=1;html=1;fontSize=16;" edge="1" parent="1" source="11" target="4">
                    <mxGeometry width="50" height="50" relative="1" as="geometry">
                        <mxPoint x="400" y="500" as="sourcePoint"/>
                        <mxPoint x="450" y="450" as="targetPoint"/>
                    </mxGeometry>
                </mxCell>
                <mxCell id="13" value="- Управляет настройкой под драйвер и заданием скважности" style="rounded=0;whiteSpace=wrap;html=1;fontSize=16;fillColor=#a20025;fontColor=#ffffff;strokeColor=#6F0000;align=left;" vertex="1" parent="1">
                    <mxGeometry x="210" y="830" width="180" height="120" as="geometry"/>
                </mxCell>
                <mxCell id="14" value="" style="endArrow=none;dashed=1;html=1;fontSize=16;" edge="1" parent="1" source="13" target="2">
                    <mxGeometry width="50" height="50" relative="1" as="geometry">
                        <mxPoint x="90" y="705.483870967742" as="sourcePoint"/>
                        <mxPoint x="250" y="679.6774193548388" as="targetPoint"/>
                    </mxGeometry>
                </mxCell>
                <mxCell id="18" value="" style="edgeStyle=none;html=1;fontSize=16;" edge="1" parent="1" source="16" target="4">
                    <mxGeometry relative="1" as="geometry">
                        <mxPoint x="310" y="690" as="sourcePoint"/>
                        <mxPoint x="310" y="730" as="targetPoint"/>
                    </mxGeometry>
                </mxCell>
                <mxCell id="19" value="" style="group" vertex="1" connectable="0" parent="1">
                    <mxGeometry x="360" y="460" width="140" height="140" as="geometry"/>
                </mxCell>
                <mxCell id="16" value="Elbow CS" style="rounded=1;whiteSpace=wrap;html=1;fontSize=16;dashed=1;verticalAlign=top;" vertex="1" parent="19">
                    <mxGeometry width="140" height="140" as="geometry"/>
                </mxCell>
                <mxCell id="8" value="PID" style="rounded=1;whiteSpace=wrap;html=1;fontSize=16;verticalAlign=top;" vertex="1" parent="19">
                    <mxGeometry x="10" y="90" width="120" height="40" as="geometry"/>
                </mxCell>
                <mxCell id="10" style="edgeStyle=none;html=1;exitX=0.5;exitY=1;exitDx=0;exitDy=0;fontSize=16;" edge="1" parent="19" source="9" target="8">
                    <mxGeometry relative="1" as="geometry"/>
                </mxCell>
                <mxCell id="9" value="Tracking CS" style="rounded=1;whiteSpace=wrap;html=1;fontSize=16;verticalAlign=top;" vertex="1" parent="19">
                    <mxGeometry x="10" y="30" width="120" height="40" as="geometry"/>
                </mxCell>
                <mxCell id="20" value="- Управляет задание угла для каждой части руки (можно через enum задавать, с каким работаем)&lt;br&gt;- Имеет функции получения угла каждой части" style="rounded=0;whiteSpace=wrap;html=1;fontSize=16;fillColor=#a20025;fontColor=#ffffff;strokeColor=#6F0000;align=left;" vertex="1" parent="1">
                    <mxGeometry x="-70" y="305" width="270" height="150" as="geometry"/>
                </mxCell>
                <mxCell id="21" value="" style="endArrow=none;dashed=1;html=1;fontSize=16;" edge="1" parent="1" source="20" target="7">
                    <mxGeometry width="50" height="50" relative="1" as="geometry">
                        <mxPoint x="210" y="670" as="sourcePoint"/>
                        <mxPoint x="250" y="670" as="targetPoint"/>
                    </mxGeometry>
                </mxCell>
                <mxCell id="22" value="" style="edgeStyle=none;html=1;fontSize=16;" edge="1" parent="1" source="7" target="16">
                    <mxGeometry relative="1" as="geometry">
                        <mxPoint x="370" y="610" as="sourcePoint"/>
                        <mxPoint x="330" y="650" as="targetPoint"/>
                    </mxGeometry>
                </mxCell>
                <mxCell id="25" style="edgeStyle=none;html=1;exitX=0.5;exitY=1;exitDx=0;exitDy=0;fontSize=16;" edge="1" parent="1" source="23" target="24">
                    <mxGeometry relative="1" as="geometry"/>
                </mxCell>
                <mxCell id="23" value="Encoder Driver" style="rounded=1;whiteSpace=wrap;html=1;fontSize=16;verticalAlign=top;" vertex="1" parent="1">
                    <mxGeometry x="520" y="640" width="120" height="40" as="geometry"/>
                </mxCell>
                <mxCell id="24" value="LLD Abs Encoder" style="rounded=1;whiteSpace=wrap;html=1;fillColor=#6a00ff;fontColor=#ffffff;strokeColor=#3700CC;fontSize=16;" vertex="1" parent="1">
                    <mxGeometry x="510" y="720" width="140" height="60" as="geometry"/>
                </mxCell>
                <mxCell id="26" value="" style="edgeStyle=none;html=1;fontSize=16;" edge="1" parent="1" source="16" target="23">
                    <mxGeometry relative="1" as="geometry">
                        <mxPoint x="370" y="610" as="sourcePoint"/>
                        <mxPoint x="330" y="650" as="targetPoint"/>
                    </mxGeometry>
                </mxCell>
                <mxCell id="27" value="- Управляет считыванием данных по интерфейсу" style="rounded=0;whiteSpace=wrap;html=1;fontSize=16;fillColor=#a20025;fontColor=#ffffff;strokeColor=#6F0000;align=left;" vertex="1" parent="1">
                    <mxGeometry x="490" y="830" width="180" height="120" as="geometry"/>
                </mxCell>
                <mxCell id="28" value="" style="endArrow=none;dashed=1;html=1;fontSize=16;" edge="1" parent="1" source="27" target="24">
                    <mxGeometry width="50" height="50" relative="1" as="geometry">
                        <mxPoint x="310" y="840" as="sourcePoint"/>
                        <mxPoint x="310" y="790" as="targetPoint"/>
                    </mxGeometry>
                </mxCell>
                <mxCell id="29" value="- Управляет получением нормированного угла энкодера" style="rounded=0;whiteSpace=wrap;html=1;fontSize=16;fillColor=#a20025;fontColor=#ffffff;strokeColor=#6F0000;align=left;" vertex="1" parent="1">
                    <mxGeometry x="680" y="585" width="270" height="150" as="geometry"/>
                </mxCell>
                <mxCell id="30" value="" style="endArrow=none;dashed=1;html=1;fontSize=16;" edge="1" parent="1" source="23" target="29">
                    <mxGeometry width="50" height="50" relative="1" as="geometry">
                        <mxPoint x="210" y="670" as="sourcePoint"/>
                        <mxPoint x="250" y="670" as="targetPoint"/>
                    </mxGeometry>
                </mxCell>
                <mxCell id="32" value="set_angle(POINT)&lt;br&gt;update()" style="edgeStyle=none;html=1;exitX=0.5;exitY=1;exitDx=0;exitDy=0;fontSize=16;" edge="1" parent="1" source="31" target="7">
                    <mxGeometry relative="1" as="geometry"/>
                </mxCell>
                <mxCell id="31" value="Main Loop" style="rounded=1;whiteSpace=wrap;html=1;fontSize=16;verticalAlign=top;" vertex="1" parent="1">
                    <mxGeometry x="240" y="240" width="120" height="40" as="geometry"/>
                </mxCell>
                <mxCell id="33" value="- Управляет заданием угла&lt;br&gt;- Имеет функции получения угла" style="rounded=0;whiteSpace=wrap;html=1;fontSize=16;fillColor=#a20025;fontColor=#ffffff;strokeColor=#6F0000;align=left;" vertex="1" parent="1">
                    <mxGeometry x="630" y="330" width="270" height="150" as="geometry"/>
                </mxCell>
                <mxCell id="34" value="" style="endArrow=none;dashed=1;html=1;fontSize=16;" edge="1" parent="1" source="16" target="33">
                    <mxGeometry width="50" height="50" relative="1" as="geometry">
                        <mxPoint x="210" y="670" as="sourcePoint"/>
                        <mxPoint x="250" y="670" as="targetPoint"/>
                    </mxGeometry>
                </mxCell>
            </root>
        </mxGraphModel>
    </diagram>
</mxfile>